# xmcd
#
# Track frame offsets:
#	150
#	14657
#	32357
#	46437
#	60640
#	73055
#	85600
#	98275
#	109482
#	124560
#	138190
#	153920
#	167625
#	177875
#	190505
#	204275
#	218117
#	232217
#	247822
#	259957
#
# Disc length: 3669 seconds
#
# Revision: 3
# Processed by: cddbd v1.5.2PL0 Copyright (c) Steve Scherf et al.
# Submitted via: EasyCDDAExtractor 2011.0.0.0
#
DISCID=060e5314
DTITLE=GENIVAL LACERDA - RAÍZES NORDESTINAS
DYEAR=1998
DGENRE=MPB
TTITLE0=SEVERINA XIQUE XIQUE (BY DJ GILMAR SINISTRO)
TTITLE1=MATE O VÉIO MATE (BY DJ GILMAR SINISTRO)
TTITLE2=DOR DE DENTE (MELÔ DA BOCHECHA) (BY DJ GILMAR SINISTRO)
TTITLE3=RADINHO DE PILHA (BY DJ GILMAR SINISTRO)
TTITLE4=NÓIS SOFRE, MAS NÓIS GOZA (BY DJ GILMAR SINISTRO)
TTITLE5=O CHEVETE DA MENINA (BY DJ GILMAR SINISTRO)
TTITLE6="H" SEM HOMEM (BY DJ GILMAR SINISTRO)
TTITLE7=É NO BATON (BY DJ GILMAR SINISTRO)
TTITLE8=RITA CAXEADO (BY DJ GILMAR SINISTRO)
TTITLE9=XOTE DO PAPA-FIGO (BY DJ GILMAR SINISTRO)
TTITLE10=A RADIOLA (BY DJ GILMAR SINISTRO)
TTITLE11=O GRAVADOR (BY DJ GILMAR SINISTRO)
TTITLE12=A MULHER DA COCADA (BY DJ GILMAR SINISTRO)
TTITLE13=O OVO E A GALINHA (BY DJ GILMAR SINISTRO)
TTITLE14=O BURRINHO DO VIZINHO (BY DJ GILMAR SINISTRO)
TTITLE15=NÃO DESPREZE O SEU COROA (BY DJ GILMAR SINISTRO)
TTITLE16=O HOMEM QUE TINHA TRES PONTINHOS (BY DJ GILMAR SINISTRO)
TTITLE17=QUEM DERA (BY DJ GILMAR SINISTRO)
TTITLE18=VAMOS MARIQUINHA (BY DJ GILMAR SINISTRO)
TTITLE19=ROCK DO JEGUE (BY DJ GILMAR SINISTRO)
EXTD=YEAR: 1998
EXTT0=
EXTT1=
EXTT2=
EXTT3=
EXTT4=
EXTT5=
EXTT6=
EXTT7=
EXTT8=
EXTT9=
EXTT10=
EXTT11=
EXTT12=
EXTT13=
EXTT14=
EXTT15=
EXTT16=
EXTT17=
EXTT18=
EXTT19=
PLAYORDER=
